/* XPM */
static char *PCB_CAM_ProcessorFrm_WxToolButton3_XPM[]={
/* PCB_CAM_ProcessorFrm_WxToolButton3 */
"24 24 2 1",
"      c None",
"0     c #22B14C",
"                        ",
"                        ",
"  00000000000000000000  ",
"  00000000000000000000  ",
"  00000000000000000000  ",
"  00000000000000000000  ",
"  00000000000000000000  ",
"  00000000    00000000  ",
"  000000        000000  ",
"  000000        000000  ",
"  00000          00000  ",
"  00000          00000  ",
"  00000          00000  ",
"  00000          00000  ",
"  000000        000000  ",
"  000000        000000  ",
"  00000000    00000000  ",
"  00000000000000000000  ",
"  00000000000000000000  ",
"  00000000000000000000  ",
"  00000000000000000000  ",
"  00000000000000000000  ",
"                        ",
"                        "};

