/* XPM */
static char *PCB_CAM_ProcessorFrm_WxToolButton6_XPM[]={
/* PCB_CAM_ProcessorFrm_WxToolButton6 */
"24 24 2 1",
"      c None",
"0     c #1459FC",
"                        ",
"                        ",
"                   000  ",
"                000000  ",
"               0000000  ",
"             000000000  ",
"            0000000000  ",
"          0000000000    ",
"         000000000      ",
"        00000000        ",
"        0000000         ",
"       0000000          ",
"      000000            ",
"     0000000            ",
"     000000             ",
"    000000              ",
"    00000               ",
"   000000               ",
"   00000                ",
"   00000                ",
"  000000                ",
"  00000                 ",
"                        ",
"                        "};

