/* XPM */
static char *PCB_CAM_ProcessorFrm_WxToolButton8_XPM[]={
/* PCB_CAM_ProcessorFrm_WxToolButton8 */
"24 24 2 1",
"      c None",
"0     c #FF7F27",
"                        ",
"                        ",
"                  0000  ",
"                 00000  ",
"                000000  ",
"               0000000  ",
"              0000000   ",
"             0000000    ",
"            0000000     ",
"           0000000      ",
"          0000000       ",
"         0000000        ",
"        0000000         ",
"       0000000          ",
"      0000000           ",
"     0000000            ",
"    0000000             ",
"   0000000              ",
"  0000000               ",
"  000000                ",
"  00000                 ",
"  0000                  ",
"                        ",
"                        "};

