/* XPM */
static char *PCB_CAM_ProcessorFrm_WxToolButton1_XPM[]={
/* PCB_CAM_ProcessorFrm_WxToolButton1 */
"23 23 2 1",
"      c None",
"0     c #000000",
" 0    0    0    0    0 ",
"00000000000000000000000",
" 0    0    0    0    0 ",
" 0    0    0    0    0 ",
" 0    0    0    0    0 ",
" 0    0    0    0    0 ",
"00000000000000000000000",
" 0    0    0    0    0 ",
" 0    0    0    0    0 ",
" 0    0    0    0    0 ",
" 0    0    0    0    0 ",
"00000000000000000000000",
" 0    0    0    0    0 ",
" 0    0    0    0    0 ",
" 0    0    0    0    0 ",
" 0    0    0    0    0 ",
"00000000000000000000000",
" 0    0    0    0    0 ",
" 0    0    0    0    0 ",
" 0    0    0    0    0 ",
" 0    0    0    0    0 ",
"00000000000000000000000",
" 0    0    0    0    0 "};

