/* XPM */
static char *PCB_CAM_ProcessorFrm_WxToolButton2_XPM[]={
/* PCB_CAM_ProcessorFrm_WxToolButton2 */
"24 24 2 1",
"      c None",
"0     c #22B14C",
"                        ",
"                        ",
"         000000         ",
"       0000000000       ",
"     00000000000000     ",
"    0000000000000000    ",
"    0000000000000000    ",
"   0000000    0000000   ",
"   00000        00000   ",
"  000000        000000  ",
"  00000          00000  ",
"  00000          00000  ",
"  00000          00000  ",
"  00000          00000  ",
"  000000        000000  ",
"   00000        00000   ",
"   0000000    0000000   ",
"    0000000000000000    ",
"    0000000000000000    ",
"     00000000000000     ",
"       0000000000       ",
"         000000         ",
"                        ",
"                        "};

