/* XPM */
static char *playpause_xpm[] = {
/* columns rows colors chars-per-pixel */
"24 24 40 1 ",
"  c #010101",
". c #070707",
"X c gray3",
"o c #181818",
"O c #1E1E1E",
"+ c gray16",
"@ c gray20",
"# c gray23",
"$ c gray25",
"% c gray31",
"& c #535353",
"* c gray36",
"= c gray38",
"- c DimGray",
"; c #6D6D6D",
": c gray45",
"> c #767676",
", c #929292",
"< c #979797",
"1 c #9A9A9A",
"2 c gray64",
"3 c #A4A4A4",
"4 c gray71",
"5 c gray",
"6 c #C0C0C0",
"7 c #C6C6C6",
"8 c gray79",
"9 c #CECECE",
"0 c LightGray",
"q c gray84",
"w c #DADADA",
"e c gray86",
"r c gray89",
"t c #E6E6E6",
"y c gray92",
"u c gray93",
"i c gray94",
"p c #F4F4F4",
"a c #FDFDFD",
"s c None",
/* pixels */
"ssssssssssssssssssssssss",
"ssssssssssssssssssssssss",
"ssssssssssssssssssssssss",
"ssssssssssssssssssssssss",
"susssssssssssq565psu565w",
"s<$9sssssssss*   qs7   -",
"s1 .;tsssssss=  .qs8 X :",
"s1   o,ssssss=   qs8   ;",
"s1 .   @4ssss=   qs8   :",
"s1       &qss*   ws8   :",
"s1        X>i=   qs8 . ;",
"s1       .  #%   qs8   :",
"s1         *w=   qs8   :",
"s1       #5ss=   ws8   ;",
"s1     O1ssss=   qs8   :",
"s1 . .>ysssss=   qs8 . :",
"s1  &0sssssss= ..qs8 . :",
"s<+4sssssssss*   qs7   -",
"srussssssssss7223usy2329",
"ssssssssssssssssssssssss",
"ssssssssssssssssssssssss",
"ssssssssssssssssssssssss",
"ssssssssssssssssssssssss",
"ssssssssssssssssssssssss"
};
