/* XPM */
static char *stopm_xpm[] = {
/* columns rows colors chars-per-pixel */
"24 24 7 1 ",
"  c black",
". c #555555",
"X c #959595",
"o c #AAAAAA",
"O c gray75",
"+ c #EAEAEA",
"@ c None",
/* pixels */
"@@@@@@@@@@@@@@@@@@@@@@@@",
"@@@@@@@@@@@@@@@@@@@@@@@@",
"@@@@@@@@@@@@@@@@@@@@@@@@",
"@@@+OooooooooooooooO+@@@",
"@@@OX..............XO@@@",
"@@@o.              .o@@@",
"@@@o.              .o@@@",
"@@@o.              .o@@@",
"@@@o.              .o@@@",
"@@@o.              .o@@@",
"@@@o.              .o@@@",
"@@@o.              .o@@@",
"@@@o.              .o@@@",
"@@@o.              .o@@@",
"@@@o.              .o@@@",
"@@@o.              .o@@@",
"@@@o.              .o@@@",
"@@@o.              .o@@@",
"@@@o.              .o@@@",
"@@@OX..............XO@@@",
"@@@+OooooooooooooooO+@@@",
"@@@@@@@@@@@@@@@@@@@@@@@@",
"@@@@@@@@@@@@@@@@@@@@@@@@",
"@@@@@@@@@@@@@@@@@@@@@@@@"
};
